<svg width="233" height="43" viewBox="0 0 233 43" fill="none" xmlns="http://www.w3.org/2000/svg">
<path d="M21.9506 32.6792L0.465332 24.27V18.4144L21.9506 10.0052V15.7727L7.3776 21.3642L21.9506 26.9557V32.6792Z" fill="#382B22"/>
<path d="M29.1979 37.5662L23.4744 35.8932L34.9655 0.0990601L40.689 1.81612L29.1979 37.5662Z" fill="#382B22"/>
<path d="M56.3885 34.4843C54.9503 34.4843 53.6294 34.1761 52.426 33.5597C51.2226 32.914 50.3274 32.0775 49.7404 31.0502V34H42.1237V2.96083H49.9605V14.9362C50.5769 13.997 51.4574 13.2485 52.6021 12.6908C53.7762 12.1332 55.0383 11.8543 56.3885 11.8543C58.267 11.8543 59.9107 12.3093 61.3195 13.2192C62.7577 14.1291 63.8731 15.4352 64.6656 17.1376C65.4581 18.8106 65.8543 20.8212 65.8543 23.1693C65.8543 25.4881 65.4434 27.4987 64.6216 29.201C63.8291 30.9034 62.7137 32.2096 61.2755 33.1195C59.8666 34.0294 58.2376 34.4843 56.3885 34.4843ZM53.923 28.7167C55.097 28.7167 56.0656 28.2765 56.8287 27.3959C57.5919 26.5154 57.9735 25.1065 57.9735 23.1693C57.9735 21.2028 57.5919 19.7939 56.8287 18.9427C56.0656 18.0622 55.097 17.6219 53.923 17.6219C52.7195 17.6219 51.7363 18.0622 50.9731 18.9427C50.21 19.7939 49.8284 21.2028 49.8284 23.1693C49.8284 25.1065 50.21 26.5154 50.9731 27.3959C51.7363 28.2765 52.7195 28.7167 53.923 28.7167Z" fill="#382B22"/>
<path d="M75.2507 34L65.7408 12.3386H73.9739L78.6848 24.6222L83.6599 12.3386H91.3646L81.6787 34H75.2507Z" fill="#382B22"/>
<path d="M102.913 42.4092C100.741 42.4092 98.7009 42.2037 96.7931 41.7928C94.9146 41.3819 93.3002 40.7068 91.9501 39.7676L93.9753 34.4843C95.0907 35.1594 96.4115 35.6877 97.9378 36.0693C99.4934 36.4509 100.902 36.6416 102.164 36.6416C103.955 36.6416 105.29 36.2601 106.171 35.4969C107.081 34.7631 107.536 33.6038 107.536 32.0188V29.9935C106.919 31.0502 105.995 31.8867 104.762 32.5031C103.529 33.1195 102.208 33.4277 100.8 33.4277C98.8623 33.4277 97.1746 32.9874 95.7364 32.1068C94.2982 31.1969 93.1682 29.9348 92.3463 28.3205C91.5538 26.7062 91.1576 24.813 91.1576 22.641C91.1576 20.469 91.5538 18.5758 92.3463 16.9615C93.1682 15.3471 94.2982 14.0997 95.7364 13.2192C97.1746 12.3093 98.8623 11.8543 100.8 11.8543C102.267 11.8543 103.603 12.1772 104.806 12.8229C106.039 13.4393 106.934 14.2611 107.492 15.2884V12.3386H115.152V31.0942C115.152 34.8805 114.096 37.713 111.982 39.5915C109.869 41.47 106.846 42.4092 102.913 42.4092ZM103.221 27.6601C104.512 27.6601 105.54 27.2198 106.303 26.3393C107.066 25.4587 107.448 24.226 107.448 22.641C107.448 21.056 107.066 19.8232 106.303 18.9427C105.54 18.0622 104.512 17.6219 103.221 17.6219C101.959 17.6219 100.946 18.0622 100.183 18.9427C99.42 19.8232 99.0384 21.056 99.0384 22.641C99.0384 24.226 99.42 25.4587 100.183 26.3393C100.946 27.2198 101.959 27.6601 103.221 27.6601Z" fill="#382B22"/>
<path d="M131.089 34.4843C127.802 34.4843 125.366 33.7212 123.781 32.1949C122.196 30.6686 121.403 28.3645 121.403 25.2826V18.1062H117.353V12.3386H121.403V6.04273H129.24V12.3386H135.404V18.1062H129.24V25.0185C129.24 27.1318 130.311 28.1884 132.454 28.1884C132.806 28.1884 133.188 28.1591 133.599 28.1004C134.039 28.0123 134.523 27.8949 135.052 27.7481L136.108 33.3836C135.433 33.7358 134.641 34 133.731 34.1761C132.821 34.3816 131.94 34.4843 131.089 34.4843Z" fill="#382B22"/>
<path d="M150.06 34.4843C147.419 34.4843 145.129 34.0294 143.192 33.1195C141.284 32.1802 139.817 30.8594 138.789 29.157C137.762 27.4546 137.249 25.4441 137.249 23.1253C137.249 20.9239 137.733 18.9721 138.701 17.2697C139.699 15.5673 141.05 14.2465 142.752 13.3072C144.484 12.3386 146.45 11.8543 148.652 11.8543C150.824 11.8543 152.702 12.3093 154.287 13.2192C155.901 14.1291 157.134 15.4352 157.985 17.1376C158.866 18.8106 159.306 20.7772 159.306 23.0372V24.7543H144.733C144.997 26.1632 145.584 27.1758 146.494 27.7922C147.404 28.4085 148.666 28.7167 150.281 28.7167C151.396 28.7167 152.555 28.5553 153.759 28.2324C154.992 27.8802 156.078 27.3812 157.017 26.7355L158.954 31.8867C157.839 32.6792 156.474 33.3102 154.859 33.7799C153.245 34.2495 151.645 34.4843 150.06 34.4843ZM149.004 16.9174C147.83 16.9174 146.861 17.2697 146.098 17.9741C145.364 18.6785 144.895 19.7058 144.689 21.056H152.878C152.79 19.6765 152.409 18.6492 151.733 17.9741C151.088 17.2697 150.178 16.9174 149.004 16.9174Z" fill="#382B22"/>
<path d="M173.733 34.4843C171.297 34.4843 169.169 34.0294 167.349 33.1195C165.559 32.2096 164.165 30.9034 163.167 29.201C162.169 27.4987 161.67 25.4734 161.67 23.1253C161.67 20.7772 162.169 18.7666 163.167 17.0936C164.165 15.3912 165.559 14.0997 167.349 13.2192C169.169 12.3093 171.297 11.8543 173.733 11.8543C175.172 11.8543 176.595 12.0598 178.004 12.4707C179.442 12.8523 180.616 13.3953 181.526 14.0997L179.457 19.471C178.782 18.9427 177.989 18.5318 177.079 18.2383C176.199 17.9154 175.362 17.754 174.57 17.754C173.014 17.754 171.811 18.2236 170.96 19.1628C170.108 20.1021 169.683 21.4229 169.683 23.1253C169.683 24.857 170.108 26.2072 170.96 27.1758C171.811 28.115 173.014 28.5847 174.57 28.5847C175.362 28.5847 176.199 28.4379 177.079 28.1444C177.989 27.8215 178.782 27.3959 179.457 26.8676L181.526 32.2389C180.616 32.9433 179.442 33.501 178.004 33.9119C176.566 34.2935 175.142 34.4843 173.733 34.4843Z" fill="#382B22"/>
<path d="M184.008 34V2.96083H191.845V15.0243C193.401 12.911 195.661 11.8543 198.625 11.8543C201.208 11.8543 203.116 12.6175 204.349 14.1437C205.611 15.67 206.242 18.0181 206.242 21.1881V34H198.405V21.4963C198.405 20.1755 198.17 19.2362 197.701 18.6785C197.26 18.1209 196.6 17.842 195.719 17.842C194.545 17.842 193.606 18.2236 192.902 18.9867C192.197 19.7205 191.845 20.7185 191.845 21.9806V34H184.008Z" fill="#382B22"/>
<path d="M210.884 32.6792V26.9557L225.457 21.3642L210.884 15.7727V10.0052L232.37 18.4144V24.27L210.884 32.6792Z" fill="#382B22"/>
</svg>
