<svg width="765" height="140" viewBox="0 0 765 140" fill="none" xmlns="http://www.w3.org/2000/svg">
<path d="M70.9811 107.644L0.130406 79.9139V60.6042L70.9811 32.8737V51.8931L22.9246 70.3317L70.9811 88.7703V107.644ZM94.88 123.76L76.0059 118.243L113.899 0.206912L132.774 5.86916L94.88 123.76ZM693.733 107.644V88.7703L741.79 70.3317L693.733 51.8931V32.8737L764.584 60.6042V79.9139L693.733 107.644Z" fill="#9E7521"/>
<path d="M184.261 113.597C179.518 113.597 175.163 112.581 171.194 110.548C167.226 108.419 164.274 105.66 162.338 102.273V112H137.221V9.64399H163.064V49.1345C165.097 46.0372 168 43.5691 171.775 41.7301C175.647 39.891 179.809 38.9715 184.261 38.9715C190.456 38.9715 195.876 40.4718 200.522 43.4723C205.265 46.4728 208.943 50.78 211.556 56.3938C214.169 61.9109 215.476 68.541 215.476 76.2843C215.476 83.9307 214.121 90.5609 211.411 96.1747C208.798 101.789 205.12 106.096 200.377 109.096C195.731 112.097 190.359 113.597 184.261 113.597ZM176.131 94.5777C180.002 94.5777 183.197 93.1258 185.713 90.2221C188.23 87.3184 189.488 82.6725 189.488 76.2843C189.488 69.7993 188.23 65.1534 185.713 62.3464C183.197 59.4427 180.002 57.9909 176.131 57.9909C172.162 57.9909 168.92 59.4427 166.403 62.3464C163.887 65.1534 162.629 69.7993 162.629 76.2843C162.629 82.6725 163.887 87.3184 166.403 90.2221C168.92 93.1258 172.162 94.5777 176.131 94.5777ZM246.462 112L215.102 40.5686H242.252L257.786 81.0754L274.192 40.5686H299.6L267.659 112H246.462ZM337.682 139.73C330.519 139.73 323.792 139.053 317.501 137.698C311.306 136.343 305.983 134.117 301.53 131.019L308.209 113.597C311.887 115.823 316.243 117.565 321.276 118.824C326.406 120.082 331.052 120.711 335.214 120.711C341.118 120.711 345.522 119.453 348.426 116.936C351.426 114.517 352.926 110.693 352.926 105.467V98.7881C350.894 102.273 347.845 105.031 343.78 107.064C339.714 109.096 335.359 110.113 330.713 110.113C324.325 110.113 318.759 108.661 314.016 105.757C309.274 102.757 305.547 98.5945 302.837 93.271C300.224 87.9475 298.917 81.7046 298.917 74.5421C298.917 67.3796 300.224 61.1366 302.837 55.8131C305.547 50.4896 309.274 46.376 314.016 43.4723C318.759 40.4718 324.325 38.9715 330.713 38.9715C335.552 38.9715 339.956 40.0362 343.925 42.1656C347.99 44.1982 350.942 46.9084 352.781 50.296V40.5686H378.043V102.418C378.043 114.904 374.559 124.244 367.59 130.439C360.621 136.633 350.652 139.73 337.682 139.73ZM338.698 91.0932C342.957 91.0932 346.345 89.6414 348.861 86.7377C351.378 83.8339 352.636 79.7687 352.636 74.5421C352.636 69.3154 351.378 65.2502 348.861 62.3464C346.345 59.4427 342.957 57.9909 338.698 57.9909C334.536 57.9909 331.197 59.4427 328.68 62.3464C326.164 65.2502 324.905 69.3154 324.905 74.5421C324.905 79.7687 326.164 83.8339 328.68 86.7377C331.197 89.6414 334.536 91.0932 338.698 91.0932ZM430.597 113.597C419.757 113.597 411.723 111.08 406.496 106.047C401.27 101.014 398.656 93.4162 398.656 83.2532V59.5879H385.299V40.5686H398.656V19.807H424.499V40.5686H444.826V59.5879H424.499V82.3821C424.499 89.351 428.032 92.8355 435.098 92.8355C436.26 92.8355 437.518 92.7387 438.873 92.5451C440.325 92.2547 441.922 91.8676 443.664 91.3836L447.148 109.967C444.922 111.129 442.309 112 439.308 112.581C436.308 113.258 433.404 113.597 430.597 113.597ZM493.158 113.597C484.446 113.597 476.897 112.097 470.509 109.096C464.217 105.999 459.378 101.643 455.99 96.0296C452.602 90.4157 450.909 83.7856 450.909 76.1391C450.909 68.8798 452.506 62.4432 455.7 56.8294C458.991 51.2155 463.443 46.86 469.057 43.7627C474.767 40.5686 481.252 38.9715 488.512 38.9715C495.674 38.9715 501.869 40.4718 507.095 43.4723C512.419 46.4728 516.484 50.78 519.291 56.3938C522.195 61.9109 523.647 68.3959 523.647 75.8487V81.511H475.59C476.461 86.1569 478.397 89.4962 481.398 91.5288C484.398 93.5614 488.56 94.5777 493.884 94.5777C497.562 94.5777 501.385 94.0454 505.353 92.9807C509.418 91.8192 513 90.1737 516.097 88.0443L522.485 105.031C518.807 107.644 514.306 109.725 508.983 111.274C503.659 112.823 498.384 113.597 493.158 113.597ZM489.673 55.6679C485.802 55.6679 482.607 56.8294 480.091 59.1524C477.671 61.4753 476.123 64.863 475.445 69.3154H502.45C502.159 64.7662 500.901 61.3785 498.675 59.1524C496.545 56.8294 493.545 55.6679 489.673 55.6679ZM571.222 113.597C563.189 113.597 556.171 112.097 550.17 109.096C544.266 106.096 539.669 101.789 536.378 96.1747C533.087 90.5609 531.441 83.8823 531.441 76.1391C531.441 68.3959 533.087 61.7657 536.378 56.2486C539.669 50.6348 544.266 46.376 550.17 43.4723C556.171 40.4718 563.189 38.9715 571.222 38.9715C575.965 38.9715 580.659 39.6491 585.305 41.0041C590.048 42.2624 593.92 44.053 596.92 46.376L590.096 64.0887C587.87 62.3464 585.257 60.9914 582.256 60.0235C579.353 58.9588 576.594 58.4264 573.981 58.4264C568.851 58.4264 564.882 59.9751 562.076 63.0724C559.269 66.1697 557.865 70.5252 557.865 76.1391C557.865 81.8497 559.269 86.3021 562.076 89.4962C564.882 92.5935 568.851 94.1421 573.981 94.1421C576.594 94.1421 579.353 93.6582 582.256 92.6903C585.257 91.6256 587.87 90.2221 590.096 88.4799L596.92 106.193C593.92 108.516 590.048 110.355 585.305 111.71C580.563 112.968 575.868 113.597 571.222 113.597ZM605.105 112V9.64399H630.948V49.4249C636.078 42.456 643.531 38.9715 653.307 38.9715C661.824 38.9715 668.116 41.4881 672.181 46.5212C676.343 51.5543 678.424 59.2975 678.424 69.7509V112H652.581V70.7672C652.581 66.4116 651.806 63.3144 650.258 61.4753C648.806 59.6363 646.628 58.7168 643.724 58.7168C639.853 58.7168 636.755 59.9751 634.432 62.4916C632.11 64.9114 630.948 68.2023 630.948 72.3643V112H605.105Z" fill="#382B22"/>
</svg>
